<svg width="45" height="34" viewBox="0 0 45 34" fill="none" xmlns="http://www.w3.org/2000/svg">
<path fill-rule="evenodd" clip-rule="evenodd" d="M0 18.3412V16.4006C0.258745 15.6841 0.278649 14.4202 0.467732 13.5643C2.5576 4.23954 12.5293 -1.53247 21.9834 1.77151C25.5461 3.01548 30.4424 6.96632 30.5618 9.17561C30.6016 10.0613 30.0642 10.8376 29.3875 11.1062C27.4967 11.8526 26.5015 9.83242 25.7253 8.89696C19.3362 1.24406 4.23944 4.85655 4.02051 17.2465C3.81152 28.8403 18.4903 34.055 25.7054 25.7851C26.7802 24.5511 27.7753 22.6204 29.6164 23.7549C31.4575 24.8994 30.1737 26.7603 29.3079 27.8053C22.8194 35.5776 10.4692 36.2643 3.44331 27.4271C0.129373 23.2573 0.417973 19.5155 0 18.3412Z" fill="#02344F"/>
<path fill-rule="evenodd" clip-rule="evenodd" d="M44.4248 16.7587V17.933C42.942 19.7641 39.5385 23.2771 37.8964 24.74C36.334 26.1332 34.0451 25.0784 34.3835 23.0183C34.5327 22.0928 35.3189 21.6948 35.8762 21.1375C36.533 20.4806 37.0704 20.0726 37.4088 19.3362C36.0155 19.3362 14.3705 19.4755 13.5744 19.2566C12.8081 19.0376 12.1114 18.2515 12.1612 17.2463C12.2607 14.8778 15.1368 15.3555 17.1769 15.3555H37.4088C37.1401 14.7683 37.359 15.1366 36.951 14.639L35.7767 13.4547C35.2791 12.9571 34.4531 12.4496 34.3636 11.4942C34.1745 9.45411 36.4733 8.61817 37.9959 10.0512C39.9067 11.8425 42.7529 14.6887 44.4248 16.7587Z" fill="#02344F"/>
</svg>
