<svg width="223" height="46" viewBox="0 0 223 46" fill="none" xmlns="http://www.w3.org/2000/svg">
<path d="M14.8763 45.9789H19.4234L19.8239 44.4466C20.5941 41.4993 19.8886 38.2786 17.7816 35.512L23.009 10.6466L28.0033 35.5297L27.7839 35.8173C25.7849 38.4382 25.043 41.4712 25.6377 44.2927L25.993 45.9789H31.1885L34.1901 46H46L29.5574 0H17.1604L0 46H19.4181L19.4222 45.9839L14.8763 45.9786V45.9789Z" fill="#ABDFEC"/>
<path d="M74.4176 12.7386H71.4955L61.457 35.5656H63.9666L67.3358 27.9336L72.9393 15.2136L78.5431 27.9336L81.9122 35.5656H84.4218L74.4176 12.7386Z" fill="#ABDFEC"/>
<path d="M110.412 12.7386V35.5656H107.73L92.4317 16.0045V35.5656H90.0598V12.7386H92.7411L108.039 32.2995V12.7386H110.412Z" fill="#ABDFEC"/>
<path d="M135.611 12.7386V14.9043H127.463V35.5656H125.091V14.9043H116.944V12.7386H135.611Z" fill="#ABDFEC"/>
<path d="M144.514 35.5656H142.142V12.7386H144.514V35.5656Z" fill="#ABDFEC"/>
<path d="M170.504 35.5656H167.273L155.584 25.2865V35.5656H153.212V12.7386H155.584V22.9146L167.135 12.7386H170.504L157.749 24.1521L170.504 35.5656Z" fill="#ABDFEC"/>
<path d="M197.388 24.1521C197.388 30.959 192.197 36.0127 185.734 36.0127C179.271 36.0127 174.08 30.959 174.08 24.1521C174.08 17.3452 179.271 12.2914 185.734 12.2914C192.197 12.2914 197.388 17.3452 197.388 24.1521ZM195.016 24.1521C195.016 18.5141 191.062 14.4573 185.733 14.4573C180.405 14.4573 176.452 18.5143 176.452 24.1521C176.452 29.7901 180.405 33.8466 185.733 33.8466C191.062 33.8466 195.016 29.7901 195.016 24.1521Z" fill="#ABDFEC"/>
<path d="M215.574 25.8365L223 35.5654H220.009L212.583 25.8365H207.014V35.5654H204.642V12.7383H215.127C220.318 12.7383 222.621 15.729 222.621 19.3045C222.621 22.7422 220.456 25.6644 215.574 25.8365H215.574ZM215.093 14.904H207.014V23.6707H215.093C218.256 23.6707 220.249 22.2956 220.249 19.3043C220.249 16.3137 218.256 14.9039 215.093 14.9039V14.904Z" fill="#ABDFEC"/>
</svg>
